<?xml version="1.0" encoding="utf-8"?>
<!-- Generator: Adobe Illustrator 27.8.1, SVG Export Plug-In . SVG Version: 6.00 Build 0)  -->
<svg version="1.1" id="Capa_1" xmlns="http://www.w3.org/2000/svg" xmlns:xlink="http://www.w3.org/1999/xlink" x="0px" y="0px"
	 viewBox="0 0 1000.4 615" style="enable-background:new 0 0 1000.4 615;" xml:space="preserve">
<style type="text/css">
	.st0{fill:#3399FF;stroke:#3399FF;stroke-width:28;stroke-miterlimit:10;}
	.st1{fill:#33CCCC;stroke:#33CCCC;stroke-width:28;stroke-miterlimit:10;}
	.st2{fill:#ED9AF4;stroke:#ED9AF4;stroke-width:28;stroke-miterlimit:10;}
	.st3{fill:none;stroke:#3399FF;stroke-width:28;stroke-miterlimit:10;}
	.st4{fill:#52D2FF;stroke:#52D2FF;stroke-width:29;stroke-miterlimit:10;}
	.st5{fill:#33CCCC;stroke:#33CCCC;stroke-width:29;stroke-miterlimit:10;}
	.st6{fill:#86DBD8;stroke:#86DBD8;stroke-width:28;stroke-miterlimit:10;}
	.st7{fill:none;stroke:#ED9AF4;stroke-width:28;stroke-miterlimit:10;}
	.st8{fill:#FBC7FF;stroke:#FBC7FF;stroke-width:29;stroke-miterlimit:10;}
	.st9{font-family:'Arial-BoldMT';}
	.st10{font-size:10px;}
	.st11{enable-background:new    ;}
	.st12{fill:#7B7B7B;}
	.st13{font-size:12px;}
</style>
<g id="visualization" transform="translate(10,10)">
	<g>
		<rect x="420.9" y="15" width="5" height="27.5"/>
		<rect x="420.9" y="47.5" width="5" height="27.5"/>
		<rect x="420.9" y="80" width="5" height="27.5"/>
		<rect x="420.9" y="112.5" width="5" height="27.5"/>
		<rect x="420.9" y="145" width="5" height="27.5"/>
		<rect x="420.9" y="177.5" width="5" height="27.5"/>
		<rect x="420.9" y="210" width="5" height="27.5"/>
		<rect x="420.9" y="242.5" width="5" height="27.5"/>
		<rect x="420.9" y="275" width="5" height="27.5"/>
		<rect x="420.9" y="307.5" width="5" height="27.5"/>
		<rect x="420.9" y="340" width="5" height="27.5"/>
		<rect x="420.9" y="372.5" width="5" height="27.5"/>
		<rect x="420.9" y="405" width="5" height="27.5"/>
		<rect x="420.9" y="437.5" width="5" height="27.5"/>
		<rect x="420.9" y="470" width="5" height="27.5"/>
		<rect x="420.9" y="502.5" width="5" height="27.5"/>
		<rect x="420.9" y="535" width="5" height="27.5"/>
		<rect x="420.9" y="567.5" width="5" height="27.5"/>
		<rect x="810.9" y="45" width="5" height="55"/>
		<rect x="810.9" y="105" width="5" height="82.5"/>
		<rect x="810.9" y="192.5" width="5" height="82.5"/>
		<rect x="810.9" y="280" width="5" height="82.5"/>
		<rect x="810.9" y="367.5" width="5" height="82.5"/>
		<rect x="810.9" y="455" width="5" height="110"/>
	</g>
	<g>
		<g>
			<path class="st0" d="M38.3,43c192.5,0,190.1-14.2,382.6-14.2"/>
		</g>
		<g>
			<path class="st0" d="M38.3,70.5c192.5,0,190.1-9.2,382.6-9.2"/>
		</g>
		<g>
			<path class="st0" d="M38.3,98c192.5,0,190.1-4.2,382.6-4.2"/>
		</g>
		<g>
			<path class="st0" d="M38.3,125.5c192.5,0,190.1,0.8,382.6,0.8"/>
		</g>
		<g>
			<path class="st0" d="M38.3,153c192.5,0,190.1,5.8,382.6,5.8"/>
		</g>
		<g>
			<path class="st0" d="M38.3,180.5c192.5,0,190.1,10.8,382.6,10.8"/>
		</g>
		<g>
			<path class="st1" d="M34.2,238.2c192.5,0,194.2-14.4,386.7-14.4"/>
		</g>
		<g>
			<path class="st1" d="M34.2,265.7c192.5,0,194.2-9.4,386.7-9.4"/>
		</g>
		<g>
			<path class="st1" d="M34.2,293.2c192.5,0,194.2-4.4,386.7-4.4"/>
		</g>
		<g>
			<path class="st1" d="M34.2,320.7c192.5,0,194.2,0.6,386.7,0.6"/>
		</g>
		<g>
			<path class="st1" d="M34.2,348.2c192.5,0,194.2,5.6,386.7,5.6"/>
		</g>
		<g>
			<path class="st1" d="M34.2,375.7c192.5,0,194.2,10.6,386.7,10.6"/>
		</g>
		<g>
			<path class="st2" d="M30.8,428.8c192.5,0,197.6-10,390.1-10"/>
		</g>
		<g>
			<path class="st2" d="M30.8,456.3c192.5,0,197.6-5,390.1-5"/>
		</g>
		<g>
			<path class="st2" d="M30.8,483.8c192.5,0,197.6,0,390.1,0"/>
		</g>
		<g>
			<path class="st2" d="M30.8,511.3c192.5,0,197.6,5,390.1,5"/>
		</g>
		<g>
			<path class="st2" d="M30.8,538.8c192.5,0,197.6,10,390.1,10"/>
		</g>
		<g>
			<path class="st2" d="M30.8,566.3c192.5,0,197.6,15,390.1,15"/>
		</g>
		<g>
			<path class="st3" d="M425.9,28.8c192.5,0,192.5,90,385,90"/>
		</g>
		<g>
			<path class="st3" d="M425.9,61.3c192.5,0,192.5,85,385,85"/>
		</g>
		<g>
			<path class="st3" d="M425.9,93.8c192.5,0,192.5,80,385,80"/>
		</g>
		<g>
			<path class="st4" d="M425.9,126.3c192.5,0,192.5,80,385,80"/>
		</g>
		<g>
			<path class="st4" d="M425.9,158.8c192.5,0,192.5,75,385,75"/>
		</g>
		<g>
			<path class="st4" d="M425.9,191.3c192.5,0,192.5,70,385,70"/>
		</g>
		<g>
			<path class="st5" d="M425.9,223.8c192.5,0,192.5,70,385,70"/>
		</g>
		<g>
			<path class="st5" d="M425.9,256.3c192.5,0,192.5,65,385,65"/>
		</g>
		<g>
			<path class="st5" d="M425.9,288.8c192.5,0,192.5,60,385,60"/>
		</g>
		<g>
			<path class="st6" d="M425.9,321.3c192.5,0,192.5,60,385,60"/>
		</g>
		<g>
			<path class="st6" d="M425.9,353.8c192.5,0,192.5,55,385,55"/>
		</g>
		<g>
			<path class="st6" d="M425.9,386.3c192.5,0,192.5,50,385,50"/>
		</g>
		<g>
			<path class="st7" d="M425.9,418.8c192.5,0,192.5-360,385-360"/>
		</g>
		<g>
			<path class="st7" d="M425.9,451.3c192.5,0,192.5-365,385-365"/>
		</g>
		<g>
			<path class="st8" d="M425.9,483.8c192.5,0,192.5-15,385-15"/>
		</g>
		<g>
			<path class="st8" d="M425.9,516.3c192.5,0,192.5-20,385-20"/>
		</g>
		<g>
			<path class="st8" d="M425.9,548.8c192.5,0,192.5-25,385-25"/>
		</g>
		<g>
			<path class="st8" d="M425.9,581.3c192.5,0,192.5-30,385-30"/>
		</g>
	</g>
	<g>
		<text transform="matrix(1 0 0 1 206.1522 32.2626)" class="st9 st10">1. Territorio, Ciudadanía y Hábitat Sostenible</text>
		<text transform="matrix(1 0 0 1 207.075 64.7626)" class="st9 st10">2. Patrimonio, Cultura y Pensamiento Crítico</text>
		<text transform="matrix(1 0 0 1 221.7039 97.2626)" class="st9 st10">15. Cultura Visual, Patrimonio e Identidad</text>
		<text transform="matrix(1 0 0 1 232.2215 129.7626)" class="st9 st10">7. Ciencia de Materiales y Ciclo de Vida</text>
		<text transform="matrix(1 0 0 1 186.5037 162.2626)" class="st9 st10">9. Sostenibilidad, Economía Circular y Upcycling</text>
		<text transform="matrix(1 0 0 1 197.3973 194.7626)" class="st9 st10">10. Oficios, Técnicas Artesanales y Patrimonio</text>
		<text transform="matrix(1 0 0 1 173.159 227.2626)" class="st9 st10">5. Tecnología Aplicada, Proyectos y Nuevos Medios</text>
		<text transform="matrix(1 0 0 1 189.6385 259.7626)" class="st9 st10">8. Fabricación Avanzada y Tecnologías Digitales</text>
		<text transform="matrix(1 0 0 1 160.8983 292.2626)" class="st9 st10">12. Biomecánica, Ergonomía y Sistemas Estructurales</text>
		<text transform="matrix(1 0 0 1 193.3397 324.7626)" class="st9 st10">3. Morfología, Percepción y Lenguajes Visuales</text>
		<text transform="matrix(1 0 0 1 208.701 357.2626)" class="st9 st10">14. Narrativa Visual, Ilustración y Animación</text>
		<text transform="matrix(1 0 0 1 218.3592 389.7626)" class="st9 st10">16. Diseño Editorial, Tipografía y Discurso</text>
		<text transform="matrix(1 0 0 1 179.7899 422.2626)" class="st9 st10">11. Diseño de Productos, Servicios y Experiencias</text>
		<text transform="matrix(1 0 0 1 172.0604 454.7626)" class="st9 st10">13. Interacción, Código y Experiencia Digital (UX/UI)</text>
		<text transform="matrix(1 0 0 1 198.1443 487.2626)" class="st9 st10">4. Innovación Social y Procesos Participativos</text>
		<text transform="matrix(1 0 0 1 224.2772 519.7626)" class="st9 st10">6. Estrategia, Gestión y Valor Económico</text>
		<text transform="matrix(1 0 0 1 183.1688 552.2626)" class="st9 st10">17. Comunicación Estratégica, Datos y Fotografía</text>
		<text transform="matrix(1 0 0 1 176.4793 584.7626)" class="st9 st10">18. Pensamiento Crítico e Investigación Proyectual</text>
		<text transform="matrix(1 0 0 1 819.4754 72.0126)" class="st11"><tspan x="0" y="0" class="st9 st10">5. Experiencia de Usuarioe </tspan><tspan x="0" y="12" class="st9 st10">    Interacción Digital</tspan></text>
		<text transform="matrix(1 0 0 1 819.4754 145.7626)" class="st11"><tspan x="0" y="0" class="st9 st10">1. Territorio, Patrimonio y </tspan><tspan x="0" y="12" class="st9 st10">     Memorias Sociales</tspan></text>
		<text transform="matrix(1 0 0 1 819.4754 233.2626)" class="st11"><tspan x="0" y="0" class="st9 st10">2. Ciencia de Materiales,Oficios </tspan><tspan x="0" y="12" class="st9 st10">    y ProducciónCircular</tspan></text>
		<text transform="matrix(1 0 0 1 819.4754 320.7626)" class="st11"><tspan x="0" y="0" class="st9 st10">3. Fabricación Avanzada,</tspan><tspan x="0" y="12" class="st9 st10">    Tecnologías y Estructuras</tspan></text>
		<text transform="matrix(1 0 0 1 819.4754 408.2626)" class="st11"><tspan x="0" y="0" class="st9 st10">4. Comunicación Visual,</tspan><tspan x="0" y="12" class="st9 st10">    Discurso y Narrativas</tspan></text>
		<text transform="matrix(1 0 0 1 819.4754 509.5126)" class="st11"><tspan x="0" y="0" class="st9 st10">6. Estrategia, Gestión y </tspan><tspan x="0" y="12" class="st9 st10">    Pensamiento Investigativo</tspan></text>
		<text transform="matrix(1 0 0 1 39.6229 118.0448)" class="st9 st10">Ambas</text>
		<text transform="matrix(1 0 0 1 39.8983 304.5126)" class="st9 st10">I y S</text>
		<text transform="matrix(1 0 0 1 39.8983 504.5126)" class="st9 st10">V y M</text>
	</g>
	<g>
		<text transform="matrix(1 0 0 1 394.4907 8.3551)" class="st12 st9 st13">Grupo 18</text>
		<text transform="matrix(1 0 0 1 790.3596 30.9991)" class="st12 st9 st13">Grupo 6</text>
		<text transform="matrix(1 0 0 1 3.8933 21.1858)" class="st12 st9 st13">Menciones</text>
	</g>
</g>
<rect x="42.7" y="39.9" width="5" height="165"/>
<rect x="39.7" y="232.9" width="5" height="165"/>
<rect x="39.7" y="423.9" width="5" height="165"/>
</svg>
