<?xml version="1.0" encoding="utf-8"?>
<!-- Generator: Adobe Illustrator 27.8.1, SVG Export Plug-In . SVG Version: 6.00 Build 0)  -->
<svg version="1.1" id="Capa_1" xmlns="http://www.w3.org/2000/svg" xmlns:xlink="http://www.w3.org/1999/xlink" x="0px" y="0px"
	 viewBox="0 0 921.3 548.9" style="enable-background:new 0 0 921.3 548.9;" xml:space="preserve">
<style type="text/css">
	.st0{fill:none;stroke:#6666FF;stroke-width:3;stroke-miterlimit:10;}
	.st1{fill:none;stroke:#99CCFF;stroke-width:3;stroke-miterlimit:10;}
	.st2{fill:none;stroke:#CC99FF;stroke-width:3.0278;}
	.st3{fill:none;stroke:#5AB4E5;stroke-width:3.0278;}
	.st4{fill:none;stroke:#33CCCC;stroke-width:3.0278;}
	.st5{fill:#04A2BC;}
	.st6{font-family:'Arial-BoldMT';}
	.st7{font-size:10px;}
	.st8{fill:#CC00CC;}
	.st9{fill:#0000FF;}
</style>
<g id="viz" transform="translate(10,10)">
	<g>
		<rect x="355.7" y="55.6" width="5" height="3.8"/>
		<rect x="851.7" y="51.9" width="5" height="49.5"/>
		<rect x="355.7" y="264.3" width="5" height="7.6"/>
		<rect x="851.7" y="145.4" width="5" height="34.3"/>
		<rect x="851.7" y="187.3" width="5" height="26.6"/>
		<rect x="355.7" y="66.9" width="5" height="3.8"/>
		<rect x="355.7" y="325.1" width="5" height="3.8"/>
		<rect x="355.7" y="370.6" width="5" height="3.8"/>
		<rect x="851.7" y="261.3" width="5" height="30.5"/>
		<rect x="355.7" y="336.5" width="5" height="3.8"/>
		<rect x="355.7" y="180.8" width="5" height="3.8"/>
		<rect x="355.7" y="294.7" width="5" height="7.6"/>
		<rect x="355.7" y="382" width="5" height="3.8"/>
		<rect x="355.7" y="78.3" width="5" height="3.8"/>
		<rect x="355.7" y="427.6" width="5" height="7.6"/>
		<rect x="851.7" y="416.1" width="5" height="34.3"/>
		<rect x="355.7" y="89.7" width="5" height="3.8"/>
		<rect x="355.7" y="309.9" width="5" height="7.6"/>
		<rect x="355.7" y="101.1" width="5" height="3.8"/>
		<rect x="355.7" y="249.1" width="5" height="7.6"/>
		<rect x="355.7" y="347.9" width="5" height="3.8"/>
		<rect x="355.7" y="112.5" width="5" height="3.8"/>
		<rect x="355.7" y="123.9" width="5" height="3.8"/>
		<rect x="355.7" y="192.2" width="5" height="3.8"/>
		<rect x="355.7" y="443.4" width="5" height="3.8"/>
		<rect x="355.7" y="279.5" width="5" height="7.6"/>
		<rect x="355.7" y="393.4" width="5" height="3.8"/>
		<rect x="355.7" y="203.6" width="5" height="3.8"/>
		<rect x="355.7" y="454.8" width="5" height="3.8"/>
		<rect x="355.7" y="135.3" width="5" height="3.8"/>
		<rect x="355.7" y="466.1" width="5" height="3.8"/>
		<rect x="355.7" y="404.8" width="5" height="3.8"/>
		<rect x="355.7" y="146.7" width="5" height="3.8"/>
		<rect x="355.7" y="215" width="5" height="3.8"/>
		<rect x="355.7" y="477.5" width="5" height="3.8"/>
		<rect x="355.7" y="488.9" width="5" height="3.8"/>
		<rect x="355.7" y="158" width="5" height="3.8"/>
		<rect x="355.7" y="416.2" width="5" height="3.8"/>
		<rect x="355.7" y="226.4" width="5" height="3.8"/>
		<rect x="355.7" y="169.4" width="5" height="3.8"/>
		<rect x="355.7" y="500.3" width="5" height="3.8"/>
		<rect x="355.7" y="511.7" width="5" height="3.8"/>
		<rect x="355.7" y="237.7" width="5" height="3.8"/>
		<rect x="355.7" y="359.3" width="5" height="3.8"/>
		<rect x="355.7" y="523.1" width="5" height="3.8"/>
	</g>
	<g>
		<path class="st0" d="M360.7,57.5c245.2,0,245.2-2.7,490.4-2.7"/>
		<path class="st1" d="M360.7,266.2c245.2,0,245.2-95,490.4-95"/>
		<path class="st2" d="M360.7,270c245.2,0,245.2-79.8,490.4-79.8"/>
		<path class="st0" d="M360.7,68.9c245.2,0,245.2-10.3,490.4-10.3"/>
		<path class="st2" d="M360.7,327c245.2,0,245.2-125.4,490.4-125.4"/>
		<path class="st3" d="M360.7,372.5c245.2,0,245.2-100.7,490.4-100.7"/>
		<path class="st2" d="M360.7,338.4c245.2,0,245.2-133,490.4-133"/>
		<path class="st1" d="M360.7,182.7c245.2,0,245.2-34.4,490.4-34.4"/>
		<path class="st1" d="M360.7,296.6c245.2,0,245.2-121.6,490.4-121.6"/>
		<path class="st2" d="M360.7,300.4c245.2,0,245.2-106.4,490.4-106.4"/>
		<path class="st3" d="M360.7,383.9c245.2,0,245.2-108.3,490.4-108.3"/>
		<path class="st0" d="M360.7,80.2c245.2,0,245.2-17.8,490.4-17.8"/>
		<path class="st4" d="M360.7,432.3c37.9,0.5,95.1,0.5,165.2-2.5c57.4-2.4,83.5-5.2,139.8-7.9c44.4-2.2,107.9-4.3,185.7-3.7"/>
		<path class="st0" d="M360.7,91.6c245.2,0,245.2-25.4,490.4-25.4"/>
		<path class="st1" d="M360.7,311.8c245.2,0,245.2-133,490.4-133"/>
		<path class="st2" d="M360.7,315.6c245.2,0,245.2-117.8,490.4-117.8"/>
		<path class="st0" d="M360.7,103c245.2,0,245.2-33,490.4-33"/>
		<path class="st0" d="M360.7,251c245.2,0,245.2-154.4,490.4-154.4"/>
		<path class="st2" d="M360.7,349.8c245.2,0,245.2-140.5,490.4-140.5"/>
		<path class="st0" d="M360.7,114.4c245.2,0,245.2-40.6,490.4-40.6"/>
		<path class="st0" d="M360.7,125.8c245.2,0,245.2-48.2,490.4-48.2"/>
		<path class="st1" d="M360.7,194.1c245.2,0,245.2-41.9,490.4-41.9"/>
		<path class="st4" d="M360.7,445.3c245.2,0,245.2-23.5,490.4-23.5"/>
		<path class="st0" d="M360.7,281.4c245.2,0,245.2-181,490.4-181"/>
		<path class="st3" d="M360.7,395.3c245.2,0,245.2-115.9,490.4-115.9"/>
		<path class="st1" d="M360.7,205.5c245.2,0,245.2-49.5,490.4-49.5"/>
		<path class="st4" d="M360.7,456.7c245.2,0,245.2-31.1,490.4-31.1"/>
		<path class="st0" d="M360.7,137.2c245.2,0,245.2-55.7,490.4-55.7"/>
		<path class="st4" d="M360.7,468c245.2,0,245.2-38.6,490.4-38.6"/>
		<path class="st3" d="M360.7,406.7c245.2,0,245.2-123.5,490.4-123.5"/>
		<path class="st0" d="M360.7,148.6c245.2,0,245.2-63.3,490.4-63.3"/>
		<path class="st1" d="M360.7,216.9c245.2,0,245.2-57.1,490.4-57.1"/>
		<path class="st4" d="M360.7,479.4c245.2,0,245.2-46.2,490.4-46.2"/>
		<path class="st3" d="M360.7,429.5c245.2,0,245.2-138.6,490.4-138.6"/>
		<path class="st4" d="M360.7,490.8c245.2,0,245.2-53.8,490.4-53.8"/>
		<path class="st3" d="M360.7,254.8c245.2,0,245.2,9.4,490.4,9.4"/>
		<path class="st0" d="M360.7,159.9c245.2,0,245.2-70.9,490.4-70.9"/>
		<path class="st3" d="M360.7,418.1c245.2,0,245.2-131,490.4-131"/>
		<path class="st1" d="M360.7,228.3c245.2,0,245.2-64.7,490.4-64.7"/>
		<path class="st0" d="M360.7,171.3c245.2,0,245.2-78.5,490.4-78.5"/>
		<path class="st3" d="M360.7,285.2c245.2,0,245.2-17.2,490.4-17.2"/>
		<path class="st4" d="M360.7,502.2c245.2,0,245.2-61.4,490.4-61.4"/>
		<path class="st4" d="M360.7,513.6c245.2,0,245.2-69,490.4-69"/>
		<path class="st1" d="M360.7,239.6c245.2,0,245.2-72.3,490.4-72.3"/>
		<path class="st2" d="M360.7,361.2c245.2,0,245.2-148.1,490.4-148.1"/>
		<path class="st4" d="M360.7,525c245.2,0,245.2-76.5,490.4-76.5"/>
	</g>
	<g>
		<g>
			<text transform="matrix(1 0 0 1 75.5176 60.9471)" class="st5 st6 st7">Design sketching. Bocetaje para Diseñadores Industriales</text>
		</g>
		<text transform="matrix(1 0 0 1 861.5889 78.1055)" class="st6 st7">Lunes</text>
		<g>
			<text transform="matrix(1 0 0 1 84.4043 271.6088)" class="st5 st6 st7">Prototipado y comunicación de experiencias y servicios</text>
		</g>
		<text transform="matrix(1 0 0 1 861.5889 164.057)" class="st6 st7">Jueves</text>
		<text transform="matrix(1 0 0 1 861.5889 202.088)" class="st6 st7">Martes</text>
		<g>
			<text transform="matrix(1 0 0 1 166.1182 72.3333)" class="st5 st6 st7">Artesanías: cultura, técnica y producto</text>
		</g>
		<g>
			<text transform="matrix(1 0 0 1 233.916 330.476)" class="st5 st6 st7">Construcción en madera</text>
		</g>
		<g>
			<text transform="matrix(1 0 0 1 110.0049 376.0209)" class="st8 st6 st7">Lenguaje y composición fotográfica para el diseño</text>
		</g>
		<text transform="matrix(1 0 0 1 861.5889 278.014)" class="st6 st7">Viernes</text>
		<g>
			<text transform="matrix(1 0 0 1 170.0098 341.8622)" class="st8 st6 st7">Diseño y visualización de información</text>
		</g>
		<g>
			<text transform="matrix(1 0 0 1 168.9063 186.1956)" class="st5 st6 st7">Modelamiento y representación digital</text>
		</g>
		<g>
			<text transform="matrix(1 0 0 1 114.4092 301.994)" class="st5 st6 st7">Materiales, tecnologías y Procesos de fabricación</text>
		</g>
		<g>
			<text transform="matrix(1 0 0 1 267.9932 387.4071)" class="st5 st6 st7">Tensoestructuras</text>
		</g>
		<text transform="matrix(1 0 0 1 258.9258 83.7195)" class="st8 st6 st7">Ilustración editorial</text>
		<g>
			<text transform="matrix(1 0 0 1 225.0537 434.8552)" class="st8 st6 st7">Fundamentos fotográficos</text>
		</g>
		<text transform="matrix(1 0 0 1 861.5889 432.6975)" class="st6 st7">Miércoles</text>
		<g>
			<text transform="matrix(1 0 0 1 196.67 95.1058)" class="st8 st6 st7">Libro de artista, teoría y práctica</text>
		</g>
		<g>
			<text transform="matrix(1 0 0 1 209.4727 317.1866)" class="st8 st6 st7">Diseño editorial y publicación</text>
		</g>
		<g>
			<text transform="matrix(1 0 0 1 211.4844 106.492)" class="st8 st6 st7">Diseño Gráfico para las Artes</text>
		</g>
		<g>
			<text transform="matrix(1 0 0 1 99.6121 256.4161)" class="st5 st6 st7">Modelamiento generativo y representación avanzada</text>
		</g>
		<g>
			<text transform="matrix(1 0 0 1 229.4971 353.2485)" class="st5 st6 st7">Introducción al biodiseño</text>
		</g>
		<g>
			<text transform="matrix(1 0 0 1 1.0401 117.8782)" class="st5 st6 st7">Biomecánica e innovación aplicada al diseño ortopédico para seres vivos</text>
		</g>
		<g>
			<text transform="matrix(1 0 0 1 290.6104 129.2645)" class="st8 st6 st7">Oficio digital</text>
		</g>
		<g>
			<text transform="matrix(1 0 0 1 181.0987 197.5818)" class="st8 st6 st7">Diseño de interacción y experiencia</text>
		</g>
		<g>
			<text transform="matrix(1 0 0 1 148.8819 448.7572)" class="st9 st6 st7">Realidad virtual para diseño y arquitectura</text>
		</g>
		<g>
			<text transform="matrix(1 0 0 1 121.1133 286.8013)" class="st9 st6 st7">La interacción del Color; su anatomía y lenguaje</text>
		</g>
		<g>
			<text transform="matrix(1 0 0 1 253.7354 398.7933)" class="st9 st6 st7">Inteligencia Artificial</text>
		</g>
		<g>
			<text transform="matrix(1 0 0 1 9.9317 208.968)" class="st9 st6 st7">Representación arquitectónica mediante técnicas gráficas tradicionales</text>
		</g>
		<g>
			<text transform="matrix(1 0 0 1 222.9981 460.1434)" class="st9 st6 st7">English for Work Purposes</text>
		</g>
		<g>
			<text transform="matrix(1 0 0 1 62.6905 140.6507)" class="st9 st6 st7">Patrimonio + Turismo: su dimensión arquitectónica y cultura</text>
		</g>
		<g>
			<text transform="matrix(1 0 0 1 213.8672 471.5297)" class="st9 st6 st7">Curso interdisciplinario PIES </text>
		</g>
		<g>
			<text transform="matrix(1 0 0 1 86.6846 410.1796)" class="st9 st6 st7">Muralismo en Chile: espacio público y contexto político</text>
		</g>
		<g>
			<text transform="matrix(1 0 0 1 162.8076 152.0369)" class="st5 st6 st7">Laboratorio de oficios contemporáneos</text>
		</g>
		<g>
			<text transform="matrix(1 0 0 1 136.0044 220.3542)" class="st5 st6 st7">Gestión y producción de arquitectura interior</text>
		</g>
		<g>
			<text transform="matrix(1 0 0 1 -3.9746 482.9158)" class="st5 st6 st7">Diseño de productos y servicios basado en la experiencia y las emociones</text>
		</g>
		<g>
			<text transform="matrix(1 0 0 1 246.7041 494.3021)" class="st8 st6 st7">Educación tipográfica</text>
		</g>
		<g>
			<text transform="matrix(1 0 0 1 6.0449 163.4231)" class="st5 st6 st7">Principios de estructuras, materiales compuestos y plásticos reforzados</text>
		</g>
		<g>
			<text transform="matrix(1 0 0 1 122.7637 421.5658)" class="st5 st6 st7">Reconocimiento y diseño de superficies textiles</text>
		</g>
		<text transform="matrix(1 0 0 1 238.9014 231.7405)" class="st5 st6 st7">Joyería contemporánea</text>
		<text transform="matrix(1 0 0 1 272.2364 174.8093)" class="st8 st6 st7">Narrativa gráfica</text>
		<g>
			<text transform="matrix(1 0 0 1 269.4825 505.6883)" class="st9 st6 st7">Sociedad y Moda</text>
		</g>
		<g>
			<text transform="matrix(1 0 0 1 57.2071 517.0745)" class="st9 st6 st7">Programa Chiloé: Territorio, paisaje y cultura del Archipiélago</text>
		</g>
		<g>
			<text transform="matrix(1 0 0 1 120.1465 243.1267)" class="st9 st6 st7">Taller práctico de experimentación de materiales</text>
		</g>
		<g>
			<text transform="matrix(1 0 0 1 39.4239 364.6347)" class="st9 st6 st7">Iluminación Natural: diseño eficiente en espacios arquitectónicos</text>
		</g>
		<text transform="matrix(1 0 0 1 254.4727 528.4608)" class="st9 st6 st7">Diseño de vehículos</text>
		<g>
			<text transform="matrix(1 0 0 1 270.7189 16.6139)" class="st5 st6 st7">Diseño I y S</text>
			<g>
				<text transform="matrix(1 0 0 1 365.8203 15.9851)" class="st8 st6 st7">Diseño V y M</text>
			</g>
			<g>
				<text transform="matrix(1 0 0 1 475.6071 15.9847)" class="st9 st6 st7">Ambas menciones</text>
			</g>
		</g>
	</g>
</g>
</svg>
